<svg width="20" height="23" viewBox="0 0 20 23" fill="none" xmlns="http://www.w3.org/2000/svg">
<path d="M6.6665 5.74992V9.58229H9.1665V5.74992H10.8332V9.58229H13.3332V5.74992H14.9998V9.58229L15.8332 9.58325C16.4708 9.58321 17.0844 9.8634 17.5484 10.3665C18.0123 10.8696 18.2916 11.5575 18.329 12.2896L18.3332 12.4583V13.4166C18.3332 14.3883 18.019 15.2758 17.5007 15.9514L17.4998 20.1249C17.4998 20.3791 17.412 20.6228 17.2558 20.8026C17.0995 20.9823 16.8875 21.0833 16.6665 21.0833H3.33317C3.11216 21.0833 2.9002 20.9823 2.74391 20.8026C2.58763 20.6228 2.49984 20.3791 2.49984 20.1249V15.9466C2.05206 15.3599 1.76962 14.6307 1.68984 13.8555L1.6715 13.613L1.6665 13.4166V12.4583C1.66647 11.7249 1.91011 11.0193 2.34757 10.4858C2.78504 9.9522 3.38326 9.63107 4.01984 9.58805L4.1665 9.58325L4.99984 9.58229V5.74992H6.6665ZM15.8332 11.4999H4.1665C3.96239 11.5 3.76539 11.5861 3.61286 11.7421C3.46033 11.8981 3.36288 12.113 3.339 12.3461L3.33317 12.4583V13.3888L3.33567 13.5297C3.36075 14.0177 3.54702 14.4762 3.85636 14.8114C4.16571 15.1467 4.57476 15.3334 4.99984 15.3333C5.39897 15.3341 5.78508 15.17 6.0879 14.871C6.39073 14.572 6.59014 14.1579 6.64984 13.7041L6.66234 13.5575L6.6665 13.3888C6.6965 12.1928 8.189 12.1497 8.324 13.2604L8.33234 13.3888L8.33567 13.5297C8.35898 14.0164 8.54271 14.4747 8.84947 14.8112C9.15623 15.1477 9.56296 15.3371 9.98687 15.3409C10.4108 15.3447 10.82 15.1626 11.1313 14.8316C11.4426 14.5006 11.6325 14.0457 11.6623 13.5594L11.6723 13.2891C11.7757 12.1813 13.224 12.1813 13.3273 13.2891L13.3373 13.5594C13.3671 14.0431 13.5552 14.4958 13.8637 14.8263C14.1722 15.1568 14.5782 15.3406 14.9998 15.3406C15.4215 15.3406 15.8274 15.1568 16.1359 14.8263C16.4444 14.4958 16.6325 14.0431 16.6623 13.5594L16.6665 13.4166V12.4583C16.6665 12.2235 16.5915 11.997 16.4559 11.8216C16.3203 11.6462 16.1334 11.5341 15.9307 11.5066L15.8332 11.4999ZM5.83317 0.958252C6.93317 1.79296 7.219 2.95925 7.04067 3.72592C6.95492 4.09421 6.74546 4.40823 6.45837 4.59892C6.17128 4.7896 5.83009 4.84133 5.50984 4.74271C5.18959 4.64409 4.91652 4.40322 4.75071 4.07307C4.58489 3.74292 4.53992 3.35054 4.62567 2.98225C4.87484 1.9185 5.83317 2.39575 5.83317 0.958252ZM9.99984 0.958252C11.0998 1.79296 11.3857 2.95925 11.2073 3.72592C11.1216 4.09421 10.9121 4.40823 10.625 4.59892C10.338 4.7896 9.99675 4.84133 9.6765 4.74271C9.35626 4.64409 9.08319 4.40322 8.91737 4.07307C8.75156 3.74292 8.70658 3.35054 8.79234 2.98225C9.0415 1.9185 9.99984 2.39575 9.99984 0.958252ZM14.1665 0.958252C15.2665 1.79296 15.5523 2.95925 15.374 3.72592C15.2882 4.09421 15.0788 4.40823 14.7917 4.59892C14.5046 4.7896 14.1634 4.84133 13.8432 4.74271C13.5229 4.64409 13.2499 4.40322 13.084 4.07307C12.9182 3.74292 12.8733 3.35054 12.959 2.98225C13.2082 1.9185 14.1665 2.39575 14.1665 0.958252Z" fill="black"/>
</svg>
