<svg width="20" height="20" viewBox="0 0 20 20" fill="none" xmlns="http://www.w3.org/2000/svg">
<path d="M10 13.3333C11.841 13.3333 13.3334 11.8409 13.3334 9.99996C13.3334 8.15901 11.841 6.66663 10 6.66663C8.15907 6.66663 6.66669 8.15901 6.66669 9.99996C6.66669 11.8409 8.15907 13.3333 10 13.3333Z" fill="white"/>
<path d="M10.8334 3.39079V1.66663H9.16669V3.39079C7.70027 3.57803 6.33749 4.24677 5.29216 5.2921C4.24683 6.33743 3.57809 7.70021 3.39085 9.16663H1.66669V10.8333H3.39085C3.57781 12.2998 4.24647 13.6627 5.29185 14.7081C6.33723 15.7535 7.70016 16.4222 9.16669 16.6091V18.3333H10.8334V16.6091C12.2999 16.4223 13.6629 15.7537 14.7083 14.7083C15.7538 13.6629 16.4224 12.2999 16.6092 10.8333H18.3334V9.16663H16.6092C16.4222 7.7001 15.7536 6.33717 14.7082 5.29179C13.6628 4.24641 12.2999 3.57775 10.8334 3.39079ZM10 15C7.24252 15 5.00002 12.7575 5.00002 9.99996C5.00002 7.24246 7.24252 4.99996 10 4.99996C12.7575 4.99996 15 7.24246 15 9.99996C15 12.7575 12.7575 15 10 15Z" fill="white"/>
</svg>
