<svg width="500" height="157" viewBox="0 0 500 157" fill="none" xmlns="http://www.w3.org/2000/svg">
<path d="M216.9 37.2082H201.685V78.5001H189.464V37.2082H174.527V27.765H216.9V37.2082ZM253.528 57.0004H234.309V69.0918H257.01V78.5001H222.088V27.765H257.079V37.2082H234.309V47.9058H253.528V57.0004ZM290.783 69.0222H274.036L271.111 78.5001H258.054L276.647 27.765H288.136L306.868 78.5001H293.742L290.783 69.0222ZM276.96 59.579H287.858L282.391 41.982L276.96 59.579ZM326.644 27.765L337.96 63.0635L349.241 27.765H365.327V78.5001H353.07V66.6526L354.255 42.4002L341.999 78.5001H333.921L321.631 42.3653L322.815 66.6526V78.5001H310.593V27.765H326.644ZM373.125 78.5001V27.765H389.455C393.935 27.765 397.962 28.7872 401.536 30.8314C405.111 32.8525 407.896 35.7214 409.893 39.4383C411.912 43.132 412.933 47.2785 412.957 51.8781V54.2128C412.957 58.8589 411.97 63.0287 409.997 66.7224C408.047 70.3927 405.285 73.2735 401.71 75.3637C398.159 77.4318 394.19 78.4766 389.803 78.5001H373.125ZM385.346 37.2082V69.0918H389.594C393.1 69.0918 395.792 67.849 397.672 65.3634C399.552 62.8545 400.492 59.1376 400.492 54.2128V52.0175C400.492 47.1159 399.552 43.4223 397.672 40.9367C395.792 38.451 393.052 37.2082 389.455 37.2082H385.346ZM450.664 57.0004H431.445V69.0918H454.145V78.5001H419.224V27.765H454.215V37.2082H431.445V47.9058H450.664V57.0004ZM477.961 60.5895H471.346V78.5001H459.125V27.765H479.075C485.086 27.765 489.787 29.1008 493.176 31.7723C496.565 34.4438 498.26 38.2187 498.26 43.0971C498.26 46.6281 497.54 49.5551 496.1 51.8781C494.685 54.2012 492.457 56.0828 489.415 57.5231L500 77.9778V78.5001H486.909L477.961 60.5895ZM471.346 51.1464H479.075C481.396 51.1464 483.137 50.5424 484.298 49.3345C485.481 48.1032 486.073 46.3958 486.073 44.2121C486.073 42.0285 485.481 40.3211 484.298 39.0899C483.113 37.8354 481.373 37.2082 479.075 37.2082H471.346V51.1464Z" fill="black"/>
<path fill-rule="evenodd" clip-rule="evenodd" d="M429.262 94.9137H173.273V128.455H429.262V94.9137ZM201.186 111.267V108.494H206.682V106.546H198.76V117.036H201.186V113.215H206.038V111.267H201.186ZM211.349 106.546H208.923V117.036H211.349V106.546ZM224.049 117.036V106.546H221.653V112.915L216.442 106.546H214.436V117.036H216.831V110.667L222.057 117.036H224.049ZM231.89 106.546H227.128V117.036H231.89C233.028 117.036 234.031 116.822 234.9 116.392C235.778 115.952 236.457 115.338 236.936 114.549C237.425 113.759 237.67 112.84 237.67 111.791C237.67 110.742 237.425 109.823 236.936 109.034C236.457 108.244 235.778 107.635 234.9 107.205C234.031 106.766 233.028 106.546 231.89 106.546ZM234.271 114.174C233.652 114.754 232.818 115.043 231.77 115.043H229.554V108.539H231.77C232.818 108.539 233.652 108.834 234.271 109.423C234.9 110.003 235.214 110.792 235.214 111.791C235.214 112.79 234.9 113.585 234.271 114.174ZM249.969 117.036V113.32L254.043 106.546H251.662L248.861 111.207L246.061 106.546H243.486L247.544 113.29V117.036H249.969ZM257.329 116.512C258.207 116.981 259.191 117.216 260.279 117.216C261.367 117.216 262.345 116.981 263.214 116.512C264.082 116.042 264.766 115.398 265.265 114.579C265.765 113.749 266.014 112.82 266.014 111.791C266.014 110.762 265.765 109.838 265.265 109.019C264.766 108.189 264.082 107.54 263.214 107.07C262.345 106.601 261.367 106.366 260.279 106.366C259.191 106.366 258.207 106.601 257.329 107.07C256.46 107.54 255.777 108.189 255.278 109.019C254.788 109.838 254.544 110.762 254.544 111.791C254.544 112.82 254.788 113.749 255.278 114.579C255.777 115.398 256.46 116.042 257.329 116.512ZM261.956 114.729C261.457 115.008 260.898 115.148 260.279 115.148C259.66 115.148 259.101 115.008 258.602 114.729C258.103 114.439 257.708 114.039 257.419 113.53C257.139 113.02 257 112.441 257 111.791C257 111.142 257.139 110.562 257.419 110.053C257.708 109.543 258.103 109.149 258.602 108.869C259.101 108.579 259.66 108.434 260.279 108.434C260.898 108.434 261.457 108.579 261.956 108.869C262.455 109.149 262.845 109.543 263.124 110.053C263.414 110.562 263.558 111.142 263.558 111.791C263.558 112.441 263.414 113.02 263.124 113.53C262.845 114.039 262.455 114.439 261.956 114.729ZM269.589 115.972C270.428 116.802 271.596 117.216 273.093 117.216C274.591 117.216 275.754 116.802 276.582 115.972C277.421 115.143 277.84 113.959 277.84 112.421V106.546H275.444V112.331C275.444 113.3 275.245 114.014 274.845 114.474C274.446 114.923 273.867 115.148 273.108 115.148C271.551 115.148 270.772 114.209 270.772 112.331V106.546H268.346V112.421C268.346 113.959 268.761 115.143 269.589 115.972ZM285.493 114.114L287.515 117.036H290.121L287.77 113.664C288.458 113.365 288.987 112.935 289.357 112.376C289.736 111.806 289.926 111.132 289.926 110.353C289.926 109.573 289.741 108.899 289.372 108.329C289.002 107.76 288.473 107.32 287.785 107.011C287.106 106.701 286.302 106.546 285.374 106.546H280.836V117.036H283.262V114.114H285.374H285.493ZM286.901 109.004C287.28 109.313 287.47 109.763 287.47 110.353C287.47 110.932 287.28 111.382 286.901 111.701C286.522 112.021 285.968 112.181 285.239 112.181H283.262V108.524H285.239C285.968 108.524 286.522 108.684 286.901 109.004ZM302.048 106.546H297.286V117.036H302.048C303.186 117.036 304.189 116.822 305.058 116.392C305.936 115.952 306.615 115.338 307.094 114.549C307.583 113.759 307.828 112.84 307.828 111.791C307.828 110.742 307.583 109.823 307.094 109.034C306.615 108.244 305.936 107.635 305.058 107.205C304.189 106.766 303.186 106.546 302.048 106.546ZM304.429 114.174C303.81 114.754 302.976 115.043 301.928 115.043H299.712V108.539H301.928C302.976 108.539 303.81 108.834 304.429 109.423C305.058 110.003 305.372 110.792 305.372 111.791C305.372 112.79 305.058 113.585 304.429 114.174ZM314.914 114.114L316.935 117.036H319.541L317.19 113.664C317.879 113.365 318.408 112.935 318.777 112.376C319.156 111.806 319.346 111.132 319.346 110.353C319.346 109.573 319.161 108.899 318.792 108.329C318.423 107.76 317.894 107.32 317.205 107.011C316.526 106.701 315.722 106.546 314.794 106.546H310.257V117.036H312.682V114.114H314.794H314.914ZM316.321 109.004C316.701 109.313 316.89 109.763 316.89 110.353C316.89 110.932 316.701 111.382 316.321 111.701C315.942 112.021 315.388 112.181 314.659 112.181H312.682V108.524H314.659C315.388 108.524 315.942 108.684 316.321 109.004ZM329.983 117.036V115.088H324.278V112.66H329.144V110.772H324.278V108.494H329.788V106.546H321.867V117.036H329.983ZM334.548 114.788H339.415L340.343 117.036H342.889L338.202 106.546H335.806L331.134 117.036H333.62L334.548 114.788ZM336.989 108.929L338.651 112.945H335.327L336.989 108.929ZM354.099 110.742L354.114 117.036H356.39L356.36 106.546H354.369L350.505 113.065L346.582 106.546H344.576V117.036H346.852V110.877L349.921 115.927H351.014L354.099 110.742ZM358.293 108.524H361.648V117.036H364.073V108.524H367.428V106.546H358.293V108.524ZM377.448 117.036V115.088H371.743V112.66H376.61V110.772H371.743V108.494H377.253V106.546H369.332V117.036H377.448ZM382.013 114.788H386.88L387.808 117.036H390.354L385.667 106.546H383.271L378.599 117.036H381.085L382.013 114.788ZM384.454 108.929L386.116 112.945H382.792L384.454 108.929ZM401.564 110.742L401.579 117.036H403.856L403.825 106.546H401.834L397.97 113.065L394.048 106.546H392.041V117.036H394.316V110.877L397.386 115.927H398.48L401.564 110.742Z" fill="black"/>
<path d="M120.303 78.4978C120.283 71.901 119.576 65.3236 118.195 58.8729H135.843C134.935 56.1821 133.837 53.559 132.559 51.0229H116.136C113.049 40.7004 108.261 30.9666 101.969 22.2232C97.9483 20.5315 93.757 19.2813 89.4679 18.4944C98.0874 27.7635 104.594 38.795 108.538 50.8267H82.1141V17.6604H74.761V50.8757H48.3376C52.2891 38.8222 58.8129 27.7731 67.4565 18.4944C63.1855 19.2682 59.0106 20.5019 55.0047 22.1741C48.6878 30.8809 43.8665 40.5812 40.739 50.8757H24.2183C22.9171 53.458 21.803 56.1306 20.8848 58.8729H38.68C37.2991 65.3236 36.5926 71.901 36.5721 78.4978C36.5856 85.7141 37.4078 92.9054 39.0232 99.9383H21.6691C22.6833 102.688 23.8957 105.361 25.2968 107.935H41.1312C44.1325 117.335 48.5817 126.207 54.3184 134.233C58.4263 135.996 62.7178 137.296 67.1133 138.109C59.1124 129.374 52.9593 119.111 49.0239 107.935H74.8102V139.041H82.1633V107.935H107.851C103.902 119.116 97.7323 129.379 89.7132 138.109C94.1292 137.268 98.4375 135.935 102.557 134.135C108.284 126.139 112.734 117.3 115.744 107.935H131.431C132.826 105.408 134.038 102.785 135.059 100.085H117.656C119.348 93.0125 120.236 85.7705 120.303 78.4978ZM74.761 99.9383H46.6217C43.1704 86.4356 43.0191 72.2992 46.1806 58.7257H74.761V99.9383ZM110.254 99.9383H82.1141V58.8729H110.695C112.103 65.3184 112.794 71.9003 112.754 78.4978C112.794 85.7198 111.954 92.9197 110.254 99.9383Z" fill="black"/>
<path d="M78.4366 0C62.9234 0 47.7584 4.60394 34.8596 13.2296C21.9608 21.8553 11.9073 34.1153 5.97067 48.4593C0.0339864 62.8034 -1.51932 78.5871 1.50718 93.8147C4.53367 109.042 12.004 123.029 22.9736 134.008C33.9432 144.986 47.9192 152.463 63.1344 155.491C78.3496 158.521 94.1204 156.966 108.453 151.025C122.785 145.083 135.036 135.021 143.655 122.112C152.273 109.203 156.873 94.0259 156.873 78.5C156.873 57.6805 148.61 37.7137 133.9 22.9921C119.19 8.27055 99.2394 0 78.4366 0ZM78.4366 147.188C64.8625 147.188 51.5932 143.159 40.3067 135.612C29.0203 128.064 20.2235 117.337 15.0289 104.785C9.83431 92.2347 8.47515 78.4237 11.1234 65.0997C13.7715 51.7757 20.3081 39.5367 29.9065 29.9306C39.5048 20.3245 51.7339 13.7826 65.0472 11.1323C78.3603 8.482 92.1602 9.84226 104.701 15.041C117.242 20.2398 127.961 29.0436 135.502 40.3393C143.043 51.6349 147.069 64.9149 147.069 78.5C147.069 96.717 139.838 114.188 126.967 127.069C114.096 139.951 96.6389 147.188 78.4366 147.188Z" fill="black"/>
</svg>
