<svg width="150" height="50" viewBox="0 0 150 50" fill="none" xmlns="http://www.w3.org/2000/svg">
<path d="M65.07 11.8494H60.5054V24.9997H56.8391V11.8494H52.3582V8.84204H65.07V11.8494ZM76.0584 18.1527H70.2926V22.0034H77.1029V24.9997H66.6263V8.84204H77.1237V11.8494H70.2926V15.2563H76.0584V18.1527ZM87.2347 21.9813H82.2106L81.3331 24.9997H77.4161L82.994 8.84204H86.4409L92.0605 24.9997H88.1225L87.2347 21.9813ZM83.0879 18.9739H86.3572L84.7173 13.3697L83.0879 18.9739ZM97.9933 8.84204L101.388 20.0836L104.772 8.84204H109.598V24.9997H105.921V21.2266L106.276 13.5029L102.6 24.9997H100.176L96.4892 13.4918L96.8443 21.2266V24.9997H93.178V8.84204H97.9933ZM111.938 24.9997V8.84204H116.836C118.18 8.84204 119.389 9.16756 120.461 9.81861C121.533 10.4623 122.369 11.3759 122.968 12.5597C123.574 13.736 123.88 15.0565 123.887 16.5214V17.2649C123.887 18.7445 123.591 20.0725 122.999 21.2488C122.414 22.4177 121.585 23.3352 120.513 24.0009C119.448 24.6595 118.257 24.9922 116.941 24.9997H111.938ZM115.604 11.8494V22.0034H116.878C117.93 22.0034 118.738 21.6077 119.301 20.816C119.866 20.017 120.148 18.8333 120.148 17.2649V16.5658C120.148 15.0047 119.866 13.8284 119.301 13.0368C118.738 12.2452 117.916 11.8494 116.836 11.8494H115.604ZM135.199 18.1527H129.433V22.0034H136.244V24.9997H125.767V8.84204H136.265V11.8494H129.433V15.2563H135.199V18.1527ZM143.388 19.2957H141.404V24.9997H137.737V8.84204H143.722C145.526 8.84204 146.936 9.26745 147.953 10.1182C148.969 10.969 149.478 12.1712 149.478 13.7249C149.478 14.8494 149.262 15.7816 148.83 16.5214C148.405 17.2612 147.737 17.8604 146.825 18.3192L150 24.8334V24.9997H146.073L143.388 19.2957ZM141.404 16.2883H143.722C144.419 16.2883 144.941 16.096 145.289 15.7113C145.644 15.3192 145.822 14.7754 145.822 14.08C145.822 13.3845 145.644 12.8408 145.289 12.4487C144.934 12.0492 144.412 11.8494 143.722 11.8494H141.404V16.2883Z" fill="black"/>
<path fill-rule="evenodd" clip-rule="evenodd" d="M128.779 30.2274H51.9821V40.9092H128.779V30.2274ZM60.3559 35.4354V34.5524H62.0046V33.932H59.6282V37.2729H60.3559V36.0558H61.8114V35.4354H60.3559ZM63.4047 33.932H62.677V37.2729H63.4047V33.932ZM67.2148 37.2729V33.932H66.496V35.9604L64.9327 33.932H64.3308V37.2729H65.0495V35.2445L66.6173 37.2729H67.2148ZM69.567 33.932H68.1385V37.2729H69.567C69.9085 37.2729 70.2094 37.2045 70.47 37.0676C70.7335 36.9276 70.9372 36.732 71.0809 36.4806C71.2277 36.2292 71.3011 35.9365 71.3011 35.6024C71.3011 35.2683 71.2277 34.9756 71.0809 34.7242C70.9372 34.4729 70.7335 34.2788 70.47 34.142C70.2094 34.002 69.9085 33.932 69.567 33.932ZM70.2813 36.3613C70.0956 36.5458 69.8456 36.6381 69.5311 36.6381H68.8662V34.5667H69.5311C69.8456 34.5667 70.0956 34.6606 70.2813 34.8483C70.47 35.0329 70.5643 35.2842 70.5643 35.6024C70.5643 35.9206 70.47 36.1736 70.2813 36.3613ZM74.9909 37.2729V36.0892L76.2128 33.932H75.4986L74.6585 35.4163L73.8185 33.932H73.0458L74.2632 36.0797V37.2729H74.9909ZM77.1988 37.1058C77.4623 37.2554 77.7573 37.3301 78.0838 37.3301C78.4102 37.3301 78.7037 37.2554 78.9643 37.1058C79.2248 36.9563 79.43 36.7511 79.5797 36.4901C79.7294 36.2261 79.8043 35.9301 79.8043 35.6024C79.8043 35.2747 79.7294 34.9804 79.5797 34.7195C79.43 34.4554 79.2248 34.2486 78.9643 34.099C78.7037 33.9495 78.4102 33.8747 78.0838 33.8747C77.7573 33.8747 77.4623 33.9495 77.1988 34.099C76.9382 34.2486 76.7331 34.4554 76.5833 34.7195C76.4366 34.9804 76.3632 35.2747 76.3632 35.6024C76.3632 35.9301 76.4366 36.2261 76.5833 36.4901C76.7331 36.7511 76.9382 36.9563 77.1988 37.1058ZM78.5869 36.5379C78.4372 36.627 78.2694 36.6715 78.0838 36.6715C77.8981 36.6715 77.7304 36.627 77.5806 36.5379C77.4309 36.4456 77.3126 36.3183 77.2257 36.1561C77.1419 35.9938 77.1 35.8092 77.1 35.6024C77.1 35.3956 77.1419 35.2111 77.2257 35.0488C77.3126 34.8865 77.4309 34.7608 77.5806 34.6717C77.7304 34.5795 77.8981 34.5333 78.0838 34.5333C78.2694 34.5333 78.4372 34.5795 78.5869 34.6717C78.7366 34.7608 78.8534 34.8865 78.9373 35.0488C79.0241 35.2111 79.0676 35.3956 79.0676 35.6024C79.0676 35.8092 79.0241 35.9938 78.9373 36.1561C78.8534 36.3183 78.7366 36.4456 78.5869 36.5379ZM80.8769 36.934C81.1285 37.1981 81.4789 37.3301 81.9281 37.3301C82.3773 37.3301 82.7262 37.1981 82.9748 36.934C83.2264 36.6699 83.3521 36.2929 83.3521 35.8029V33.932H82.6334V35.7742C82.6334 36.0829 82.5735 36.3104 82.4537 36.4567C82.3339 36.5999 82.1602 36.6715 81.9326 36.6715C81.4654 36.6715 81.2318 36.3724 81.2318 35.7742V33.932H80.504V35.8029C80.504 36.2929 80.6283 36.6699 80.8769 36.934ZM85.6481 36.3422L86.2546 37.2729H87.0362L86.331 36.199C86.5376 36.1036 86.6963 35.9667 86.8071 35.7886C86.9209 35.6072 86.9778 35.3924 86.9778 35.1442C86.9778 34.8961 86.9224 34.6813 86.8116 34.4999C86.7008 34.3186 86.5421 34.1786 86.3354 34.0799C86.1318 33.9813 85.8907 33.932 85.6122 33.932H84.251V37.2729H84.9788V36.3422H85.6122H85.6481ZM86.0704 34.7147C86.1842 34.8133 86.2411 34.9565 86.2411 35.1442C86.2411 35.3288 86.1842 35.472 86.0704 35.5738C85.9566 35.6756 85.7904 35.7265 85.5718 35.7265H84.9788V34.562H85.5718C85.7904 34.562 85.9566 34.6129 86.0704 34.7147ZM90.6144 33.932H89.1859V37.2729H90.6144C90.9559 37.2729 91.2568 37.2045 91.5174 37.0676C91.7809 36.9276 91.9846 36.732 92.1283 36.4806C92.2751 36.2292 92.3485 35.9365 92.3485 35.6024C92.3485 35.2683 92.2751 34.9756 92.1283 34.7242C91.9846 34.4729 91.7809 34.2788 91.5174 34.142C91.2568 34.002 90.9559 33.932 90.6144 33.932ZM91.3287 36.3613C91.143 36.5458 90.893 36.6381 90.5785 36.6381H89.9137V34.5667H90.5785C90.893 34.5667 91.143 34.6606 91.3287 34.8483C91.5174 35.0329 91.6117 35.2842 91.6117 35.6024C91.6117 35.9206 91.5174 36.1736 91.3287 36.3613ZM94.4742 36.3422L95.0806 37.2729H95.8623L95.157 36.199C95.3636 36.1036 95.5224 35.9667 95.6332 35.7886C95.747 35.6072 95.8039 35.3924 95.8039 35.1442C95.8039 34.8961 95.7485 34.6813 95.6377 34.4999C95.5269 34.3186 95.3681 34.1786 95.1615 34.0799C94.9578 33.9813 94.7168 33.932 94.4382 33.932H93.0771V37.2729H93.8048V36.3422H94.4382H94.4742ZM94.8964 34.7147C95.0103 34.8133 95.0672 34.9565 95.0672 35.1442C95.0672 35.3288 95.0103 35.472 94.8964 35.5738C94.7826 35.6756 94.6164 35.7265 94.3978 35.7265H93.8048V34.562H94.3978C94.6164 34.562 94.7826 34.6129 94.8964 34.7147ZM98.9949 37.2729V36.6524H97.2833V35.8792H98.7433V35.2779H97.2833V34.5524H98.9365V33.932H96.5601V37.2729H98.9949ZM100.365 36.557H101.825L102.103 37.2729H102.867L101.461 33.932H100.742L99.3404 37.2729H100.086L100.365 36.557ZM101.097 34.6908L101.596 35.9699H100.598L101.097 34.6908ZM106.23 35.2683L106.234 37.2729H106.917L106.908 33.932H106.311L105.152 36.0081L103.975 33.932H103.373V37.2729H104.056V35.3113L104.976 36.9197H105.304L106.23 35.2683ZM107.488 34.562H108.494V37.2729H109.222V34.562H110.228V33.932H107.488V34.562ZM113.235 37.2729V36.6524H111.523V35.8792H112.983V35.2779H111.523V34.5524H113.176V33.932H110.8V37.2729H113.235ZM114.604 36.557H116.064L116.343 37.2729H117.106L115.7 33.932H114.981L113.58 37.2729H114.326L114.604 36.557ZM115.336 34.6908L115.835 35.9699H114.838L115.336 34.6908ZM120.469 35.2683L120.474 37.2729H121.157L121.148 33.932H120.55L119.391 36.0081L118.214 33.932H117.612V37.2729H118.295V35.3113L119.216 36.9197H119.544L120.469 35.2683Z" fill="black"/>
<path d="M36.0907 25C36.0845 22.8991 35.8726 20.8044 35.4582 18.75H40.7527C40.4801 17.8931 40.1507 17.0577 39.7674 16.25H34.8406C33.9143 12.9626 32.4779 9.86264 30.5903 7.07811C29.3842 6.53936 28.1268 6.1412 26.8401 5.89061C29.4259 8.84255 31.3779 12.3558 32.5611 16.1875H24.6339V5.625H22.428V16.2031H14.501C15.6865 12.3644 17.6436 8.84561 20.2367 5.89061C18.9554 6.13702 17.7029 6.52993 16.5011 7.0625C14.6061 9.83534 13.1597 12.9246 12.2214 16.2031H7.2652C6.87482 17.0255 6.54062 17.8767 6.26514 18.75H11.6037C11.1894 20.8044 10.9775 22.8991 10.9713 25C10.9754 27.2982 11.222 29.5884 11.7067 31.8282H6.50045C6.8047 32.7038 7.16843 33.5552 7.58876 34.375H12.3391C13.2394 37.3684 14.5742 40.1941 16.2952 42.75C17.5276 43.3116 18.815 43.7257 20.1337 43.9843C17.7334 41.2027 15.8875 37.9341 14.7069 34.375H22.4428V44.2813H24.6487V34.375H32.3551C31.1704 37.9357 29.3194 41.2043 26.9137 43.9843C28.2385 43.7166 29.531 43.292 30.7668 42.7188C32.4849 40.1725 33.8198 37.3575 34.723 34.375H39.4292C39.8476 33.5702 40.2112 32.7348 40.5174 31.875H35.2965C35.8041 29.6225 36.0706 27.3161 36.0907 25ZM22.428 31.8282H13.9862C12.9508 27.5279 12.9054 23.0259 13.8539 18.7031H22.428V31.8282ZM33.0758 31.8282H24.6339V18.75H33.2082C33.6307 20.8027 33.8378 22.8988 33.8258 25C33.8378 27.3 33.586 29.5929 33.0758 31.8282Z" fill="black"/>
<path d="M23.531 0C18.877 0 14.3275 1.46622 10.4579 4.21325C6.58823 6.9603 3.5722 10.8648 1.7912 15.4329C0.0101959 20.0011 -0.455797 25.0277 0.452153 29.8773C1.3601 34.7268 3.6012 39.1814 6.89208 42.6777C10.1829 46.1739 14.3758 48.555 18.9403 49.5196C23.5049 50.4843 28.2361 49.9891 32.5359 48.0971C36.8356 46.2048 40.5107 43.0005 43.0964 38.8893C45.682 34.778 47.062 29.9446 47.062 25C47.062 18.3696 44.5829 12.0107 40.17 7.32232C35.757 2.63393 29.7718 0 23.531 0ZM23.531 46.875C19.4588 46.875 15.478 45.5921 12.092 43.1884C8.70608 40.7848 6.06706 37.3684 4.50867 33.3711C2.95029 29.3741 2.54254 24.9757 3.33702 20.7324C4.13146 16.4891 6.09243 12.5913 8.97194 9.53205C11.8514 6.47277 15.5202 4.38936 19.5142 3.54532C23.5081 2.70127 27.6481 3.13448 31.4102 4.79014C35.1726 6.4458 38.3882 9.24957 40.6506 12.8469C42.913 16.4442 44.1206 20.6735 44.1206 25C44.1206 30.8016 41.9513 36.3657 38.09 40.468C34.2288 44.5702 28.9917 46.875 23.531 46.875Z" fill="black"/>
</svg>
